<svg width="1920" height="1076" fill="none" xmlns="http://www.w3.org/2000/svg">
    <g clip-path="url(#a)">
        <path fill-rule="evenodd" clip-rule="evenodd" d="M1025.45 538c0-294.033-77.592-507-206.917-507s-206.92 212.967-206.92 507 77.595 507 206.92 507 206.917-212.967 206.917-507Zm-120.325 0c0 185.488-28.677 288.537-86.592 288.537S731.941 723.488 731.941 538c0-185.488 28.677-288.537 86.592-288.537S905.125 352.512 905.125 538Zm286.195 177.756v313.264h-115.83V47h200.74c101.21 0 162.5 115.041 162.5 334.878 0 141.52-29.8 234.951-73.1 287.163l84.34 359.979h-126.51l-70.85-313.264h-61.29Zm0-448.919v229.082h68.04c47.23 0 63.54-38.472 63.54-114.041 0-75.569-16.31-115.041-63.54-115.041h-68.04ZM1910 1029h-143.38L1658.1 671.276l-45.55 125.033V1029h-118.64V47h118.64v426.423L1755.37 47h131.58l-151.82 415.431L1910 1029Zm-1419.844 0H363.08l-59.006-644.886h-1.124L245 1029H117.362L9.967 47h120.891l59.635 636.642h1.687L249.5 47h114.706l57.386 636.642h1.124L482.848 47h115.268l-107.96 982Z" fill="#222"/>
    </g>
</svg>
